# File produced by Open Asset Import Library (http://www.assimp.sf.net)
# (assimp v3.1.187496374)

mtllib SM_POLYGON_Grass_01_Synty.obj.mtl

# 108 vertex positions
v  0.261155 0.307407 0.224066
v  0.28163 0.373438 0.174796
v  0.401931 0.607703 0.327034
v  0.122769 -0.111647 0.101611
v  0.157552 -0.111647 0.0488766
v  0.244548 0.51596 0.178298
v  0.22407 0.449926 0.227573
v  0.086875 -0.111647 0.0183816
v  0.097652 -0.111647 0.103988
v  0.377665 0.445798 -0.249368
v  0.398461 0.316204 -0.25127
v  0.497303 0.5691 -0.333355
v  0.152044 -0.111647 -0.191833
v  0.210664 -0.111647 -0.202319
v  0.382135 0.301058 -0.30715
v  0.361342 0.430653 -0.305246
v  0.202261 -0.111647 -0.240734
v  0.143644 -0.111647 -0.230248
v  -0.196534 0.630241 -0.246841
v  -0.178439 0.613993 -0.300541
v  -0.30078 0.720819 -0.31441
v  -0.043075 -0.111647 -0.12639
v  -0.0270935 -0.111647 -0.194133
v  -0.217089 0.509752 -0.306183
v  -0.235184 0.525999 -0.252484
v  -0.060108 -0.111647 -0.203219
v  -0.0760858 -0.111647 -0.135482
v  0.0484143 0.733583 0.201283
v  -0.00880981 0.731279 0.2052
v  0.0374762 0.898234 0.32744
v  0.0278534 -0.111647 0.00569415
v  -0.0414539 -0.111647 0.0171932
v  -0.00832947 0.638513 0.24503
v  0.048894 0.640817 0.241112
v  -0.0384644 -0.111647 0.0525456
v  0.0308362 -0.111647 0.0410457
v  -0.185892 0.513502 0.0652631
v  -0.223396 0.400864 0.0758493
v  -0.265597 0.701924 0.163569
v  -0.0297333 -0.111647 0.00389563
v  -0.091153 -0.111647 0.0266104
v  -0.19964 0.380053 0.128489
v  -0.162138 0.492693 0.117903
v  -0.075957 -0.111647 0.0628588
v  -0.014541 -0.111647 0.0401449
v  0.0340631 0.25523 -0.198417
v  -0.0170203 0.302096 -0.213693
v  0.00948242 0.439699 -0.420454
v  0.0221484 -0.111647 -0.0952477
v  -0.0478918 -0.111647 -0.0927316
v  0.00994507 0.4523 -0.21133
v  0.0679254 0.374296 -0.211594
v  -0.0279156 -0.111647 -0.0552635
v  0.0381555 -0.111647 -0.0765798
v  -0.0468604 0.301997 0.388354
v  -0.00471313 0.262243 0.430816
v  -0.0742358 0.338254 0.503697
v  0.015141 -0.111647 0.14217
v  0.039314 -0.111647 0.172037
v  0.0404541 0.297764 0.385447
v  -0.00169617 0.337525 0.342981
v  0.10446 -0.111647 0.154971
v  0.0528595 -0.111647 0.0788147
v  -0.37656 0.0912915 -0.0334643
v  -0.372305 0.0819058 0.0376242
v  -0.497303 0.148433 -0.0211724
v  -0.201 -0.111647 0.00517121
v  -0.210817 -0.111647 0.03973
v  -0.325782 0.136184 0.0218208
v  -0.33004 0.145574 -0.0492749
v  -0.16265 -0.111647 0.0700315
v  -0.132208 -0.111647 -0.0117254
v  -0.116047 0.307407 0.241231
v  -0.0629559 0.373438 0.246538
v  -0.173759 0.607703 0.405822
v  -0.0389923 -0.111647 0.0732781
v  0.0215643 -0.111647 0.0912725
v  -0.0770624 0.51596 0.212066
v  -0.130159 0.449926 0.206758
v  0.0302496 -0.111647 0.0147882
v  -0.048551 -0.111647 0.0499308
v  0.213275 0.445798 0.0688322
v  0.227822 0.316204 0.0838138
v  0.353788 0.5691 0.10912
v  0.0267383 -0.111647 -0.0705202
v  0.0717322 -0.111647 -0.0315099
v  0.261032 0.301058 0.0359994
v  0.246484 0.430653 0.0210215
v  0.0963336 -0.111647 -0.0621866
v  0.0513422 -0.111647 -0.101195
v  -0.361058 0.301997 -0.122609
v  -0.389471 0.262243 -0.0699577
v  -0.479384 0.338254 -0.115354
v  -0.107474 -0.111647 -0.134673
v  -0.129046 -0.111647 -0.102877
v  -0.332952 0.297764 -0.0398902
v  -0.304538 0.337525 -0.0925453
v  -0.093819 -0.111647 -0.0454806
v  -0.0359027 -0.111647 -0.11695
v  0.103108 0.0912915 -0.391709
v  0.0363092 0.0819058 -0.367018
v  0.0563251 0.148433 -0.503697
v  0.117051 -0.111647 -0.21249
v  0.0811298 -0.111647 -0.211862
v  0.0649261 0.136184 -0.327079
v  0.131731 0.145574 -0.351773
v  0.0661011 -0.111647 -0.156976
v  0.153173 -0.111647 -0.151555

# 0 UV coordinates

# 204 vertex normals
vn 0.0095877 -0.00275967 0.000678452
vn 0.00958902 -0.002752 0.000690716
vn 0.0085852 -0.00449858 -0.00246113
vn 0.00961463 -0.00256783 0.000982428
vn -0.00175319 0.00623098 0.00762242
vn -0.00951017 0.00308221 -0.000237971
vn -0.00950332 0.00310577 -0.000202886
vn -0.00961458 0.00256791 -0.000982663
vn -0.00658027 -0.00153061 -0.00737274
vn 0.00530404 0.00158476 -0.00832801
vn 0.00526069 0.00157419 -0.00835745
vn 0.00603076 0.0017605 -0.00778014
vn 0.00512116 0.00154014 -0.00844995
vn -0.00303076 -0.00102157 0.00947475
vn -0.00294275 -0.000999402 0.00950481
vn -0.00144934 -0.000619801 0.00987498
vn -0.00328725 -0.00108604 0.0093816
vn 0.00225976 0.000164911 0.00973993
vn 0.00225114 0.000163355 0.00974196
vn 0.0052271 0.000714445 0.00849512
vn 0.00170664 6.53004e-05 0.00985308
vn -0.00187092 -0.000156519 -0.00982218
vn -0.00173048 -7.85189e-05 -0.00984882
vn -0.00173068 -7.86333e-05 -0.00984878
vn -0.0017066 -6.52798e-05 -0.00985308
vn -0.00892757 -0.00294785 0.00340714
vn 0.0090766 -0.00388006 -0.00160014
vn 0.00907545 -0.00388326 -0.00159894
vn 0.00902198 -0.0040273 -0.00154429
vn 0.00909013 -0.00384235 -0.0016143
vn -0.00831532 0.00547364 0.00094587
vn -0.00833355 0.00544349 0.000959365
vn -0.00711573 0.00702393 0.000175213
vn -0.00851923 0.00511954 0.00110143
vn 0.00937837 0.00280633 0.00204225
vn 0.00938419 0.00278041 0.00205094
vn 0.00658129 0.00752881 -5.9894e-05
vn 0.00945768 0.0024169 0.00217047
vn -0.00909106 -0.00368081 -0.00195047
vn -0.00943342 -0.00252435 -0.00215367
vn -0.00943143 -0.00253292 -0.0021523
vn -0.00945765 -0.0024169 -0.00217061
vn 0.00934239 -0.0035006 0.000682343
vn 0.00221736 -0.000294484 -0.00974662
vn 0.0021668 -0.000275092 -0.00975855
vn 0.00120463 9.06963e-05 -0.00992676
vn 0.00237311 -0.000354317 -0.00970787
vn -0.00373241 0.000883963 0.00923514
vn -0.00368481 0.00086518 0.00925601
vn -0.00461843 0.00123705 0.00878293
vn -0.00355579 0.000814353 0.00931092
vn -0.000992546 0.00248826 -0.00963449
vn -0.000993254 0.0024679 -0.00963965
vn -0.000785975 0.00603002 -0.00793858
vn -0.00100276 0.00217902 -0.00970806
vn 0.000773568 -0.00313909 0.00946296
vn 0.000983093 -0.0022635 0.00969072
vn 0.000981537 -0.00227022 0.00968931
vn 0.00100263 -0.002179 0.00970807
vn -0.00434102 -0.0035729 -0.00826982
vn -0.00986315 0.000607243 0.00153284
vn -0.00985554 0.000624989 0.00157409
vn -0.00967209 0.000959672 0.00235152
vn -0.00988531 0.000552461 0.00140549
vn 0.00999622 -6.32864e-05 -0.0002677
vn 0.00999491 -8.08409e-05 -0.000308561
vn 0.00998321 0.000271439 0.000511773
vn 0.0099904 -0.000128244 -0.000418866
vn -0.00387749 0.0003624 -0.00921052
vn -0.00387048 0.000359615 -0.00921358
vn -0.00625581 0.00136145 -0.00768188
vn -0.00342608 0.000184434 -0.00939297
vn 0.00352818 -0.000296389 0.00935223
vn 0.00344092 -0.000200652 0.00938722
vn 0.00344104 -0.000200792 0.00938717
vn 0.00342606 -0.000184409 0.00939298
vn 0.00713259 -0.00479321 -0.00511383
vn -0.00919501 -0.00211472 0.00331358
vn -0.00919481 -0.00211739 0.00331243
vn -0.00918493 -0.00223742 0.00326053
vn -0.00919733 -0.00208319 0.00332708
vn 0.00899839 0.00341889 -0.00270929
vn 0.00900395 0.00339449 -0.00272144
vn 0.00859567 0.00469229 -0.00202409
vn 0.00905907 0.00313215 -0.00285005
vn -0.00574087 -0.00443585 -0.00688227
vn -0.00573054 -0.00442931 -0.00689508
vn -0.00770349 -0.00559696 -0.00305455
vn -0.0054792 -0.0042696 -0.00719367
vn 0.00668708 0.0048862 -0.00560428
vn 0.00610357 0.00471912 0.0063621
vn 0.00613108 0.00473879 0.00632089
vn 0.00547902 0.00426972 0.00719373
vn -0.00198729 0.000218784 0.0097981
vn -0.00964052 0.00183796 -0.00191894
vn -0.00965159 0.00183912 -0.00186129
vn -0.00940272 0.00180868 -0.002884
vn -0.00968493 0.00184242 -0.00167559
vn 0.00977143 -0.00181502 -0.00110675
vn 0.00975836 -0.00181074 -0.00122296
vn 0.00933552 -0.0017009 -0.00315517
vn 0.00980188 -0.0018261 -0.000767174
vn -0.0082488 -0.00437712 0.00357744
vn -0.00825026 -0.0043662 0.00358742
vn -0.00712006 -0.00700312 0.000510945
vn -0.00827931 -0.00410577 0.00382044
vn -0.000155832 0.00722172 0.00691538
vn 0.0082078 0.00479052 -0.00311174
vn 0.00820233 0.00482229 -0.00307689
vn 0.00827945 0.00410567 -0.00382023
vn 0.00771228 -0.00161696 -0.0061568
vn 0.00574101 -0.003403 0.00744718
vn 0.00578664 -0.00341201 0.00740763
vn 0.00493424 -0.00323081 0.00807559
vn 0.00593167 -0.00344007 0.00727882
vn -0.00776555 0.00369446 -0.00510364
vn -0.00782858 0.00369856 -0.00500339
vn -0.00871581 0.00368973 -0.00322807
vn -0.00757519 0.00367951 -0.00539238
vn -0.00563899 -0.00819143 -0.00104992
vn -0.00565125 -0.00818308 -0.00104909
vn -0.00175888 -0.00977253 -0.00118492
vn -0.005937 -0.00798081 -0.00102895
vn -0.00792053 0.00597255 0.00126252
vn 0.00511487 0.00851604 0.00114683
vn 0.00507406 0.00853969 0.0011522
vn 0.00593694 0.00798081 0.00102922
vn 0.00943665 0.00288786 0.00161551
vn -0.00140211 0.000407633 0.00989282
vn -0.00134409 0.000425162 0.00990013
vn -0.00237838 0.000107956 0.00971245
vn -0.00115748 0.000481325 0.00992112
vn -0.00158454 -0.00127108 -0.00979151
vn -0.00169665 -0.0013019 -0.00976865
vn -0.00352974 -0.00178845 -0.00918381
vn -0.0012558 -0.00118002 -0.00985041
vn 0.00213144 -0.00275967 0.00937236
vn 0.00212009 -0.00275201 0.00937719
vn 0.00484532 -0.00449858 0.00750238
vn 0.00184834 -0.00256783 0.0094863
vn -0.00780327 0.00623098 0.000532908
vn -0.0025305 0.00308221 -0.00917042
vn -0.00256209 0.00310577 -0.00915368
vn -0.0018481 0.00256791 -0.00948633
vn 0.00514735 -0.00153061 -0.00843576
vn 0.00950838 0.00158476 0.00266068
vn 0.00952399 0.00157419 0.00261066
vn 0.00919483 0.0017605 0.00351506
vn 0.00957205 0.00154014 0.00245029
vn -0.00994651 -0.00102157 -0.000152522
vn -0.00994976 -0.000999402 -5.9571e-05
vn -0.00987088 -0.000619801 0.00147701
vn -0.00993176 -0.00108604 -0.000425001
vn -0.00866589 0.000164911 0.00498751
vn -0.00867032 0.000163355 0.00497985
vn -0.00661395 0.000714445 0.00746627
vn -0.00893459 6.53004e-05 0.00449098
vn 0.00885737 -0.000156519 -0.00463924
vn 0.0089236 -7.85189e-05 -0.00451256
vn 0.0089235 -7.86333e-05 -0.00451275
vn 0.0089346 -6.52798e-05 -0.00449095
vn -0.00584997 -0.00294785 -0.00755567
vn 0.00416386 -0.00388006 0.00822237
vn 0.00416237 -0.00388326 0.00822162
vn 0.00409457 -0.0040273 0.00818629
vn 0.00418134 -0.00384235 0.00823121
vn -0.00331692 0.00547364 -0.00768357
vn -0.00333512 0.00544349 -0.00769711
vn -0.00223147 0.00702393 -0.00675906
vn -0.00352492 0.00511954 -0.0078336
vn -0.00581608 -0.00437712 -0.00685668
vn -0.00582605 -0.0043662 -0.00685518
vn -0.00255402 -0.00700312 -0.00666583
vn -0.00605748 -0.00410577 -0.00681539
vn -0.00666334 0.00722172 0.00185654
vn 0.0053585 0.00479052 0.00695251
vn 0.00532357 0.00482229 0.00695738
vn 0.00605732 0.00410567 0.0068156
vn 0.00812897 -0.00161696 0.00559512
vn -0.00546201 -0.003403 0.00765415
vn -0.00541093 -0.00341201 0.00768636
vn -0.0062974 -0.00323081 0.00706432
vn -0.00524558 -0.00344007 0.0077878
vn 0.00263202 0.00369446 -0.00891198
vn 0.0025178 0.00369856 -0.00894323
vn 0.000561465 0.00368973 -0.00927742
vn 0.00296356 0.00367951 -0.00881354
vn -0.000630694 -0.00819143 -0.00570112
vn -0.000635041 -0.00818308 -0.00571262
vn 0.000623855 -0.00977253 -0.00202694
vn -0.000737192 -0.00798081 -0.00598024
vn -0.00350545 0.00597255 -0.00721391
vn 0.00038593 0.00851604 0.00522763
vn 0.000368959 0.00853969 0.00519014
vn 0.000736915 0.00798081 0.00598026
vn 0.00119085 0.00288786 0.00949959
vn -0.00987426 0.000407633 0.00152738
vn -0.00986443 0.000425162 0.00158503
vn -0.00998478 0.000107956 0.000540764
vn -0.00983039 0.000481325 0.0017697
vn 0.00891107 -0.00127108 -0.00435628
vn 0.00885668 -0.0013019 -0.00445693
vn 0.00776533 -0.00178845 -0.00604162
vn 0.00906279 -0.00118002 -0.00405874

# Mesh 'SM_POLYGON_Grass_01_Synty' with 168 faces
g SM_POLYGON_Grass_01_Synty
usemtl Polygon_Mat
f  1//1 2//2 3//3
f  4//4 2//2 1//1
f  4//4 5//4 2//2
f  3//5 6//6 7//7
f  7//7 6//6 8//8
f  7//7 8//8 9//8
f  9//9 8//9 5//9
f  9//9 5//9 4//9
f  2//10 6//11 3//12
f  5//13 6//11 2//10
f  5//13 8//13 6//11
f  7//14 1//15 3//16
f  9//17 1//15 7//14
f  9//17 4//17 1//15
f  10//18 11//19 12//20
f  13//21 11//19 10//18
f  13//21 14//21 11//19
f  12//22 15//23 16//24
f  16//24 15//23 17//25
f  16//24 17//25 18//25
f  18//26 17//26 14//26
f  18//26 14//26 13//26
f  11//27 15//28 12//29
f  14//30 15//28 11//27
f  14//30 17//30 15//28
f  16//31 10//32 12//33
f  18//34 10//32 16//31
f  18//34 13//34 10//32
f  19//35 20//36 21//37
f  22//38 20//36 19//35
f  22//38 23//38 20//36
f  21//39 24//40 25//41
f  25//41 24//40 26//42
f  25//41 26//42 27//42
f  27//43 26//43 23//43
f  27//43 23//43 22//43
f  20//44 24//45 21//46
f  23//47 24//45 20//44
f  23//47 26//47 24//45
f  25//48 19//49 21//50
f  27//51 19//49 25//48
f  27//51 22//51 19//49
f  28//52 29//53 30//54
f  31//55 29//53 28//52
f  31//55 32//55 29//53
f  30//56 33//57 34//58
f  34//58 33//57 35//59
f  34//58 35//59 36//59
f  36//60 35//60 32//60
f  36//60 32//60 31//60
f  29//61 33//62 30//63
f  32//64 33//62 29//61
f  32//64 35//64 33//62
f  34//65 28//66 30//67
f  36//68 28//66 34//65
f  36//68 31//68 28//66
f  37//69 38//70 39//71
f  40//72 38//70 37//69
f  40//72 41//72 38//70
f  39//73 42//74 43//75
f  43//75 42//74 44//76
f  43//75 44//76 45//76
f  45//77 44//77 41//77
f  45//77 41//77 40//77
f  38//78 42//79 39//80
f  41//81 42//79 38//78
f  41//81 44//81 42//79
f  43//82 37//83 39//84
f  45//85 37//83 43//82
f  45//85 40//85 37//83
f  46//86 47//87 48//88
f  49//89 47//87 46//86
f  49//89 50//89 47//87
f  48//90 51//91 52//92
f  52//92 51//91 53//93
f  52//92 53//93 54//93
f  54//94 53//94 50//94
f  54//94 50//94 49//94
f  47//95 51//96 48//97
f  50//98 51//96 47//95
f  50//98 53//98 51//96
f  52//99 46//100 48//101
f  54//102 46//100 52//99
f  54//102 49//102 46//100
f  55//103 56//104 57//105
f  58//106 56//104 55//103
f  58//106 59//106 56//104
f  57//107 60//108 61//109
f  61//109 60//108 62//110
f  61//109 62//110 63//110
f  63//111 62//111 59//111
f  63//111 59//111 58//111
f  56//112 60//113 57//114
f  59//115 60//113 56//112
f  59//115 62//115 60//113
f  61//116 55//117 57//118
f  63//119 55//117 61//116
f  63//119 58//119 55//117
f  64//120 65//121 66//122
f  67//123 65//121 64//120
f  67//123 68//123 65//121
f  66//124 69//125 70//126
f  70//126 69//125 71//127
f  70//126 71//127 72//127
f  72//128 71//128 68//128
f  72//128 68//128 67//128
f  65//129 69//130 66//131
f  68//132 69//130 65//129
f  68//132 71//132 69//130
f  70//133 64//134 66//135
f  72//136 64//134 70//133
f  72//136 67//136 64//134
f  73//137 74//138 75//139
f  76//140 74//138 73//137
f  76//140 77//140 74//138
f  75//141 78//142 79//143
f  79//143 78//142 80//144
f  79//143 80//144 81//144
f  81//145 80//145 77//145
f  81//145 77//145 76//145
f  74//146 78//147 75//148
f  77//149 78//147 74//146
f  77//149 80//149 78//147
f  79//150 73//151 75//152
f  81//153 73//151 79//150
f  81//153 76//153 73//151
f  82//154 83//155 84//156
f  85//157 83//155 82//154
f  85//157 86//157 83//155
f  84//158 87//159 88//160
f  88//160 87//159 89//161
f  88//160 89//161 90//161
f  90//162 89//162 86//162
f  90//162 86//162 85//162
f  83//163 87//164 84//165
f  86//166 87//164 83//163
f  86//166 89//166 87//164
f  88//167 82//168 84//169
f  90//170 82//168 88//167
f  90//170 85//170 82//168
f  91//171 92//172 93//173
f  94//174 92//172 91//171
f  94//174 95//174 92//172
f  93//175 96//176 97//177
f  97//177 96//176 98//178
f  97//177 98//178 99//178
f  99//179 98//179 95//179
f  99//179 95//179 94//179
f  92//180 96//181 93//182
f  95//183 96//181 92//180
f  95//183 98//183 96//181
f  97//184 91//185 93//186
f  99//187 91//185 97//184
f  99//187 94//187 91//185
f  100//188 101//189 102//190
f  103//191 101//189 100//188
f  103//191 104//191 101//189
f  102//192 105//193 106//194
f  106//194 105//193 107//195
f  106//194 107//195 108//195
f  108//196 107//196 104//196
f  108//196 104//196 103//196
f  101//197 105//198 102//199
f  104//200 105//198 101//197
f  104//200 107//200 105//198
f  106//201 100//202 102//203
f  108//204 100//202 106//201
f  108//204 103//204 100//202

