# File produced by Open Asset Import Library (http://www.assimp.sf.net)
# (assimp v3.1.187496374)

mtllib SM_POLYGON_Rock_02_Synty.obj.mtl

# 57 vertex positions
v  -0.809583 0.0151195 0.834498
v  0.355858 -0.0994056 0.985419
v  -0.717022 0.458502 0.741937
v  0.321469 0.706501 0.892857
v  -0.465627 1.17577 0.528772
v  -0.243122 1.35314 0.461637
v  -0.436723 1.35314 0.374295
v  0.257553 1.17507 -0.751815
v  0.273837 1.00623 -0.795642
v  -0.575979 0.922467 -0.631359
v  -0.619805 0.514111 -0.675186
v  -0.920388 -0.354367 0.277629
v  0.321148 -0.354367 0.277629
v  -0.716157 -0.354367 0.741073
v  -0.716157 -0.354367 -0.771539
v  0.321148 -0.354367 0.891994
v  0.796453 -0.354367 0.741073
v  0.920388 -0.354367 0.277629
v  0.309636 -0.354367 -0.891993
v  0.796453 -0.354367 -0.771539
v  0.921254 1.14419 0.277963
v  0.79732 1.05074 0.622781
v  1.01381 0.167669 0.313805
v  0.812491 0.8352 0.757111
v  0.889878 0.167669 0.834498
v  -1.01381 0.0151195 0.313805
v  -0.921254 0.3425 0.277965
v  -0.567878 0.519505 0.65884
v  0.285349 0.718202 0.795642
v  -0.524053 0.925236 0.615011
v  0.269065 1.02723 0.600892
v  0.309958 0.993731 -0.892859
v  0.344346 0.0544136 -0.985419
v  -0.717022 0.452313 -0.772404
v  -0.809583 -0.0994056 -0.864963
v  0.700102 1.00755 0.644721
v  0.824036 1.13354 0.24032
v  0.656274 1.17575 0.600892
v  0.780208 1.24042 0.223347
v  -0.716673 0.462314 0.278583
v  -0.665355 0.865818 0.261611
v  0.750213 1.01317 0.694832
v  0.217325 1.35314 0.461637
v  0.517018 1.35314 0.461637
v  0.217325 1.35314 0.169424
v  0.640952 1.35314 0.169424
v  0.517018 1.35314 -0.492104
v  0.205814 1.35314 -0.612559
v  -0.165815 1.35314 -0.492104
v  -0.436723 1.35314 -0.27775
v  -0.436723 1.35314 0.169424
v  0.656274 1.17298 -0.631359
v  0.700102 1.00216 -0.675186
v  0.79732 1.01225 -0.772404
v  0.889878 -0.0994056 -0.864963
v  0.729685 0.974105 0.741937
v  -0.502104 1.15094 -0.557483

# 0 UV coordinates

# 255 vertex normals
vn -0.00327405 0.00708382 0.0306585
vn -0.00327405 0.00708382 0.0306585
vn -0.00327405 0.00708382 0.0306585
vn -0.00530302 0.00333528 0.0310096
vn -0.00530302 0.00333528 0.0310096
vn -0.00530302 0.00333528 0.0310096
vn -0.00985951 0.0206402 0.0218544
vn -0.00652888 0.00718595 -0.0301095
vn -0.00652888 0.00718595 -0.0301095
vn -0.00652888 0.00718595 -0.0301095
vn -0.0063345 0.00397891 -0.030739
vn -0.0063345 0.00397891 -0.030739
vn -0.0063345 0.00397891 -0.030739
vn 0 -0.0316361 -1.67936e-09
vn 0 -0.0316361 -1.67936e-09
vn 0 -0.0316361 -1.67936e-09
vn 0 -0.0316361 0
vn 0 -0.0316361 8.69845e-10
vn 0 -0.0316361 -3.84232e-10
vn 0.029333 0.00319908 0.0114098
vn 0.029333 0.00319908 0.0114098
vn 0.029333 0.00319908 0.0114098
vn 0.0306484 0.00558782 0.00550438
vn 0.0306484 0.00558782 0.00550437
vn 0.0304807 0.00437471 0.00725492
vn 0.0304807 0.00437471 0.00725492
vn 0.0304807 0.00437471 0.00725492
vn -0.0281849 0.00917877 0.0110548
vn -0.02867 0.00819213 0.0105718
vn -0.02867 0.00819213 0.0105718
vn -0.02867 0.00819213 0.0105718
vn -0.00586691 0.00396451 0.0308335
vn -0.00586691 0.00396451 0.0308335
vn -0.00586691 0.00396451 0.0308335
vn -0.00168132 0.0167799 0.0267666
vn -0.00168132 0.0167799 0.0267666
vn -0.00168132 0.0167799 0.0267666
vn -0.00516036 0.00287366 -0.0310799
vn -0.00516036 0.00287366 -0.0310799
vn -0.00399758 0.0058435 -0.0308337
vn -0.00399758 0.0058435 -0.0308337
vn -0.00399758 0.0058435 -0.0308337
vn 0.0275851 0.0102206 0.011638
vn 0.0275851 0.0102206 0.011638
vn 0.0275851 0.0102206 0.011638
vn 0.0267991 0.012733 0.0109782
vn 0.0267991 0.012733 0.0109782
vn 0.0267991 0.012733 0.0109782
vn -0.0294096 0.00419781 0.0108766
vn -0.0294096 0.00419781 0.0108766
vn -0.0294096 0.00419781 0.0108766
vn -0.0293408 0.00435747 0.0109989
vn -0.0293408 0.00435747 0.0109989
vn -0.0293408 0.00435747 0.0109989
vn -0.0149468 0.0277521 -0.00269428
vn -0.0149468 0.0277521 -0.00269428
vn -0.0155469 0.0259999 -0.0091183
vn -0.0155469 0.0259999 -0.0091183
vn -0.0155469 0.0259999 -0.0091183
vn -0.0081414 0.0297109 0.00719908
vn -0.0081414 0.0297109 0.00719908
vn -0.00801478 0.0298893 0.00657533
vn -0.00801478 0.0298893 0.00657533
vn -0.00801478 0.0298893 0.00657534
vn 0.0198209 0.0140315 0.0202754
vn 0.0198209 0.0140315 0.0202754
vn 0.0198209 0.0140315 0.0202754
vn -0.0159879 0.0272981 0.000212509
vn -0.0159879 0.0272981 0.000212509
vn -0.0159879 0.0272981 0.000212509
vn -0.0118655 0.0293258 0.000232299
vn -0.0118655 0.0293258 0.000232299
vn 0 0.0316361 0
vn 0 0.0316361 -7.48756e-10
vn 0 0.0316361 6.20478e-10
vn 0.00885885 0.00842808 -0.0291776
vn 0.00885885 0.00842808 -0.0291776
vn 0.00828485 0.00956477 -0.0289952
vn 0.00828485 0.00956477 -0.0289952
vn -0.00161079 0.0315512 0.00166566
vn -0.00161079 0.0315512 0.00166566
vn -0.00161079 0.0315512 0.00166566
vn 0.00130372 0.031409 -0.00355266
vn 0.00130372 0.031409 -0.00355267
vn 0.00130372 0.031409 -0.00355267
vn 0.00743198 0.00328489 -0.0305748
vn 0.00743198 0.00328489 -0.0305748
vn 0.00743198 0.00328489 -0.0305748
vn 0.00763846 0.00317842 -0.0305352
vn 0.00763846 0.00317842 -0.0305352
vn 0.00763846 0.00317842 -0.0305352
vn 0.00676153 0.003811 0.0306692
vn 0.00676153 0.003811 0.0306692
vn 0.00676153 0.003811 0.0306692
vn 0.00645895 0.00714235 0.0301349
vn 0.00645895 0.00714235 0.0301349
vn 0.00727784 0.0043767 0.0304749
vn 0.00727784 0.0043767 0.0304749
vn 0.00727784 0.0043767 0.0304749
vn -0.0144109 0.0268236 0.00858276
vn -0.0144109 0.0268236 0.00858276
vn -0.0144109 0.0268236 0.00858276
vn -0.0157899 0.0240859 0.0130917
vn -0.0157899 0.0240859 0.0130917
vn -0.0157899 0.0240859 0.0130917
vn -0.0132401 0.0256898 0.0128676
vn -0.0132401 0.0256898 0.0128676
vn -0.0132401 0.0256898 0.0128676
vn -0.00195594 0.0167611 0.0267598
vn -0.00195594 0.0167611 0.0267598
vn -0.00278645 0.00726447 0.0306644
vn -0.00278645 0.00726447 0.0306644
vn -0.0312605 0.00385099 -0.00296579
vn -0.0312605 0.00385099 -0.00296579
vn -0.0312605 0.00385099 -0.00296579
vn -0.0312886 0.00366911 -0.00289887
vn -0.0312886 0.00366911 -0.00289887
vn -0.0312886 0.00366911 -0.00289887
vn -0.0166633 0.0268886 -0.000428853
vn -0.0166633 0.0268886 -0.000428853
vn -0.0166633 0.0268886 -0.000428853
vn -0.0159873 0.0272989 -0.000141173
vn -0.0159873 0.0272989 -0.000141173
vn -0.0159873 0.0272989 -0.000141174
vn -0.0304818 0.00609927 -0.00587376
vn -0.0304818 0.00609927 -0.00587376
vn -0.0304818 0.00609927 -0.00587376
vn -0.0301946 0.00798544 -0.00503611
vn -0.0301946 0.00798544 -0.00503611
vn -0.0301946 0.00798544 -0.00503611
vn 0.0312506 0.00281375 -0.00404072
vn 0.0312506 0.00281375 -0.00404072
vn 0.0312506 0.00281375 -0.00404072
vn 0.0312515 0.00293091 -0.00394979
vn 0.0312515 0.00293091 -0.00394979
vn 0.0312515 0.00293091 -0.00394979
vn -0.00178188 0.0312986 -0.00425043
vn -0.00178188 0.0312986 -0.00425043
vn -0.00178188 0.0312986 -0.00425043
vn -0.0063292 0.0308384 -0.00312681
vn -0.0063292 0.0308384 -0.00312681
vn -0.0063292 0.0308384 -0.00312681
vn 0.0291629 0.0111478 -0.00510827
vn 0.0291629 0.0111478 -0.00510827
vn 0.0291629 0.0111478 -0.00510827
vn 0.0298477 0.00902703 -0.00533601
vn 0.0298477 0.00902703 -0.00533601
vn 0.0298477 0.00902703 -0.00533601
vn -0.0286407 0.0134371 0
vn -0.0286407 0.0134371 0
vn -0.028397 0.0114985 0.00788936
vn -0.028397 0.0114985 0.00788936
vn -0.028397 0.0114985 0.00788936
vn -0.0284204 0.00996288 0.00968844
vn -0.0284204 0.00996288 0.00968844
vn -0.0284204 0.00996288 0.00968844
vn -0.0287278 0.0130911 -0.00204483
vn -0.0287278 0.0130911 -0.00204483
vn -0.0287278 0.0130911 -0.00204483
vn -0.0301017 0.0097331 8.82046e-08
vn -0.0301017 0.0097331 8.82046e-08
vn -0.0301017 0.00973309 8.82046e-08
vn -0.0301016 0.00973337 0
vn 0.00668577 0.0219796 -0.0217496
vn 0.00668578 0.0219796 -0.0217496
vn 0.00668578 0.0219796 -0.0217496
vn 0.00876908 0.0202652 -0.0226555
vn 0.00876908 0.0202652 -0.0226555
vn 0.020646 0.0236564 -0.00386793
vn 0.020646 0.0236564 -0.00386793
vn 0.020646 0.0236564 -0.00386793
vn 0.022734 0.0214275 -0.00498717
vn 0.022734 0.0214275 -0.00498717
vn 0.0191219 0.0230367 0.010223
vn 0.0191219 0.0230367 0.010223
vn 0.0175522 0.0252458 0.00744428
vn 0.0175522 0.0252458 0.00744428
vn 0.0175522 0.0252458 0.00744428
vn 0 0.0124304 0.0290918
vn 0 0.0124304 0.0290918
vn 0 0.0124304 0.0290918
vn -0.00614931 0.0160316 0.026571
vn -0.00614931 0.0160316 0.026571
vn -0.00614931 0.0160316 0.026571
vn -0.000814235 0.0104632 0.0298446
vn -0.000814235 0.0104632 0.0298446
vn -0.000814235 0.0104632 0.0298446
vn -0.000506937 0.0117517 0.0293681
vn -0.000506937 0.0117517 0.0293681
vn -0.000506937 0.0117517 0.0293681
vn -0.0109702 0.0286401 0.0077618
vn -0.0109702 0.0286401 0.0077618
vn -0.0109702 0.0286401 0.0077618
vn -0.0116154 0.0289176 0.00544956
vn -0.0116154 0.0289176 0.00544956
vn -0.00573941 0.0304871 0.00619981
vn -0.00573941 0.0304871 0.00619981
vn -0.00573941 0.0304871 0.00619981
vn 0.0198225 0.0140315 0.0202738
vn 0.0198225 0.0140315 0.0202738
vn 0.0198225 0.0140315 0.0202738
vn -0.0120527 0.0249709 -0.0152325
vn -0.0120527 0.0249709 -0.0152325
vn -0.0120527 0.0249709 -0.0152325
vn -0.00763608 0.0116531 -0.0284032
vn -0.00763608 0.0116531 -0.0284032
vn -0.00763608 0.0116531 -0.0284032
vn -0.00680846 0.0191602 -0.0242359
vn -0.00680846 0.0191602 -0.0242359
vn -0.00680846 0.0191602 -0.0242359
vn -0.00816239 0.017322 -0.0251827
vn -0.00816239 0.017322 -0.0251827
vn -0.00816239 0.017322 -0.0251827
vn -0.0047509 -0.00879102 0.0300165
vn -0.0047509 -0.00879102 0.0300165
vn -0.0047509 -0.00879102 0.0300165
vn -0.00430849 -0.0102644 0.0296129
vn -0.00430849 -0.0102644 0.0296129
vn -0.0279871 -0.00985222 0.0109772
vn -0.0279871 -0.00985223 0.0109772
vn -0.0279429 -0.00827091 0.0123139
vn -0.0279429 -0.00827091 0.0123139
vn -0.0279429 -0.00827091 0.0123139
vn 0.0300855 -0.00666574 0.00716085
vn 0.0300855 -0.00666574 0.00716085
vn 0.0300855 -0.00666574 0.00716085
vn 0.0300207 -0.00592883 0.00802824
vn 0.0300207 -0.00592883 0.00802824
vn 0.0300207 -0.00592883 0.00802824
vn 0.0116554 -0.00718967 0.0285185
vn 0.0116554 -0.00718967 0.0285185
vn 0.00891852 -0.0115062 0.0280876
vn 0.00891853 -0.0115062 0.0280876
vn 0.00891852 -0.0115062 0.0280876
vn -0.00230293 -0.00684393 -0.030801
vn -0.00230293 -0.00684393 -0.030801
vn -0.00230293 -0.00684393 -0.030801
vn -0.00341775 -0.0119174 -0.0291056
vn -0.00341775 -0.0119174 -0.0291056
vn -0.00341775 -0.0119174 -0.0291056
vn -0.0304524 -0.00725223 -0.00457148
vn -0.0304524 -0.00725223 -0.00457148
vn -0.0304524 -0.00725223 -0.00457148
vn -0.0285308 -0.0124896 -0.00555382
vn -0.0285308 -0.0124896 -0.00555382
vn -0.0285308 -0.0124896 -0.00555382
vn 0.00464512 -0.00734652 -0.0304187
vn 0.00464512 -0.00734652 -0.0304187
vn 0.00464512 -0.00734652 -0.0304187
vn 0.00694563 -0.012831 -0.0280708
vn 0.00694563 -0.012831 -0.0280708
vn 0.00694563 -0.012831 -0.0280708
vn 0.0311007 -0.00542435 -0.00204088
vn 0.029101 -0.0119231 -0.00343763
vn 0.029101 -0.0119231 -0.00343763

# Mesh 'SM_POLYGON_Rock_02_Synty' with 110 faces
g SM_POLYGON_Rock_02_Synty
usemtl Polygon_Mat
f  1//1 2//2 3//3
f  3//4 2//5 4//6
f  5//7 6//7 7//7
f  8//8 9//9 10//10
f  10//11 9//12 11//13
f  12//14 13//15 14//16
f  15//17 13//15 12//14
f  14//16 13//15 16//17
f  16//17 13//15 17//17
f  17//17 13//15 18//18
f  19//17 13//15 15//17
f  18//18 13//15 20//19
f  20//19 13//15 19//17
f  21//20 22//21 23//22
f  22//23 24//24 23//24
f  25//25 23//26 24//27
f  26//28 1//28 27//28
f  27//29 1//30 3//31
f  28//32 29//33 30//34
f  30//35 29//36 31//37
f  32//38 33//39 34//38
f  34//40 33//41 35//42
f  36//43 37//44 38//45
f  38//46 37//47 39//48
f  40//49 28//50 41//51
f  41//52 28//53 30//54
f  34//55 11//56 32//55
f  32//57 11//58 9//59
f  3//60 4//61 28//61
f  28//62 4//63 29//64
f  24//65 22//66 42//67
f  27//68 3//69 40//70
f  40//71 3//72 28//71
f  43//73 44//73 45//73
f  43//73 45//73 6//73
f  45//73 44//73 46//73
f  46//73 47//73 45//73
f  45//73 47//73 48//74
f  48//74 49//75 45//73
f  49//75 50//73 45//73
f  51//73 45//73 50//73
f  51//73 7//73 45//73
f  7//73 6//73 45//73
f  8//76 52//76 9//77
f  9//78 52//78 53//79
f  54//80 32//81 53//82
f  53//83 32//84 9//85
f  32//86 54//87 33//88
f  33//89 54//90 55//91
f  2//92 25//93 4//94
f  56//95 4//96 24//95
f  4//97 25//98 24//99
f  4//100 56//101 29//102
f  42//103 36//104 56//105
f  29//106 56//107 36//108
f  29//109 36//109 31//110
f  31//111 36//112 38//111
f  40//113 41//114 11//115
f  11//116 41//117 10//118
f  34//119 27//120 11//121
f  11//122 27//123 40//124
f  35//125 26//126 34//127
f  34//128 26//129 27//130
f  21//131 23//132 54//133
f  54//134 23//135 55//136
f  37//137 21//138 53//139
f  53//140 21//141 54//142
f  39//143 37//144 52//145
f  52//146 37//147 53//148
f  51//149 41//150 7//150
f  7//151 41//152 5//153
f  41//154 30//155 5//156
f  41//157 51//158 10//159
f  10//160 51//161 57//162
f  51//161 50//163 57//162
f  52//164 8//165 47//166
f  47//167 8//168 48//167
f  46//169 39//170 47//171
f  47//172 39//173 52//172
f  38//174 39//175 44//174
f  44//176 39//177 46//178
f  43//179 31//180 44//180
f  31//180 43//179 6//181
f  44//182 31//183 38//184
f  30//185 31//186 5//187
f  5//188 31//189 6//190
f  42//191 22//192 36//193
f  36//194 22//195 37//194
f  22//196 21//197 37//198
f  42//199 56//200 24//201
f  50//202 49//203 57//204
f  10//205 57//206 8//207
f  57//208 49//209 8//210
f  49//211 48//212 8//213
f  1//214 14//215 2//216
f  2//217 14//217 16//218
f  1//219 26//219 14//220
f  14//221 26//222 12//223
f  25//224 17//225 23//226
f  23//227 17//228 18//229
f  25//230 2//231 17//231
f  17//232 2//233 16//234
f  33//235 19//236 35//237
f  35//238 19//239 15//240
f  26//241 35//242 12//243
f  12//244 35//245 15//246
f  33//247 55//248 19//249
f  19//250 55//251 20//252
f  23//253 18//253 55//253
f  55//254 18//255 20//254

